<svg width="81" height="83" viewBox="0 0 81 83" fill="none" xmlns="http://www.w3.org/2000/svg">
<path d="M64.7467 16.4353C62.2404 16.4353 59.9394 14.9972 58.789 12.7784L55.8306 6.82063C53.9406 3.08161 49.01 0 44.819 0H35.4098C31.1776 0 26.247 3.08161 24.357 6.82063L21.3986 12.7784C20.2482 14.9972 17.9472 16.4353 15.4408 16.4353C6.52472 16.4353 -0.542445 23.9544 0.0327885 32.8294L2.16937 66.7682C2.66243 75.2324 7.22321 82.1763 18.5635 82.1763H61.624C72.9644 82.1763 77.4841 75.2324 78.0182 66.7682L80.1548 32.8294C80.73 23.9544 73.6629 16.4353 64.7467 16.4353ZM33.9306 21.5713H46.2571C47.9417 21.5713 49.3387 22.9683 49.3387 24.6529C49.3387 26.3375 47.9417 27.7345 46.2571 27.7345H33.9306C32.246 27.7345 30.8489 26.3375 30.8489 24.6529C30.8489 22.9683 32.246 21.5713 33.9306 21.5713ZM40.0938 66.2341C32.4515 66.2341 26.2059 60.0298 26.2059 52.3463C26.2059 44.6628 32.4104 38.4585 40.0938 38.4585C47.7773 38.4585 53.9816 44.6628 53.9816 52.3463C53.9816 60.0298 47.7362 66.2341 40.0938 66.2341Z" fill="#A88869" fill-opacity="0.5"/>
</svg>
