<svg width="56" height="56" viewBox="0 0 56 56" fill="none" xmlns="http://www.w3.org/2000/svg">
<path d="M54.1907 40.3259L45.8863 20.9047C44.374 17.3495 42.1189 15.3331 39.5453 15.2004C36.9982 15.0677 34.5308 16.8454 32.6471 20.2414L27.606 29.2888C26.5448 31.1991 25.0325 32.3399 23.3875 32.4726C21.7159 32.6318 20.0444 31.7562 18.6913 30.0317L18.1076 29.2888C16.2239 26.9275 13.8891 25.7866 11.5013 26.0254C9.11341 26.2642 7.07048 27.9091 5.71736 30.5888L1.12739 39.7422C-0.517572 43.0587 -0.358382 46.9058 1.57843 50.0365C3.51524 53.1673 6.88476 55.051 10.5727 55.051H44.4271C47.9823 55.051 51.2988 53.2734 53.2621 50.3018C55.2785 47.3303 55.5969 43.5893 54.1907 40.3259Z" fill="#934B07" fill-opacity="0.7"/>
<path d="M14.2636 17.9354C19.2164 17.9354 23.2312 13.9204 23.2312 8.96769C23.2312 4.01498 19.2164 0 14.2636 0C9.31093 0 5.29595 4.01498 5.29595 8.96769C5.29595 13.9204 9.31093 17.9354 14.2636 17.9354Z" fill="#934B07" fill-opacity="0.7"/>
</svg>
